{"title":"Love Actually 2003 DVDRip (Eesti Subtiitrid) FLY635","uid":8110487,"size":813573340,"categoryP":"video","categoryS":"movies","magnet":"?xt=urn:btih:827be66e1951edd31848c693b885c5cb55b8d1bc&amp;dn=Love+Actually+2003+DVDRip+%28Eesti+Subtiitrid%29+FLY635&amp;tr=udp%3A%2F%2Ftracker.openbittorrent.com%3A80&amp;tr=udp%3A%2F%2Fopen.demonii.com%3A1337&amp;tr=udp%3A%2F%2Ftracker.coppersurfer.tk%3A6969&amp;tr=udp%3A%2F%2Fexodus.desync.com%3A6969","seeders":1,"leechers":0,"uploader":"FLY635","files":-1,"time":1360177061,"description":"Follows the lives of eight very different couples in dealing with their love lives in various loosely and interrelated tales all set during a frantic month before Christmas in London, England.\n\nDirector: Richard Curtis\nWriter: Richard Curtis\nStars: Hugh Grant, Martine McCutcheon, Liam Neeson\n\nVideo\nID                                       : 0\nFormat                                   : MPEG-4 Visual\nFormat profile                           : Advanced Simple@L5\nFormat settings, BVOP                    : 2\nFormat settings, QPel                    : No\nFormat settings, GMC                     : No warppoints\nFormat settings, Matrix                  : Default (H.263)\nMuxing mode                              : Packed bitstream\nCodec ID                                 : XVID\nCodec ID/Hint                            : XviD\nDuration                                 : 2h 9mn\nBit rate                                 : 699 Kbps\nWidth                                    : 624 pixels\nHeight                                   : 352 pixels\nDisplay aspect ratio                     : 16:9\nOriginal display aspect ratio            : 16:9\nFrame rate                               : 25.000 fps\nColor space                              : YUV\nChroma subsampling                       : 4:2:0\nBit depth                                : 8 bits\nScan type                                : Progressive\nCompression mode                         : Lossy\nBits/(Pixel*Frame)                       : 0.127\nStream size                              : 646 MiB (83%)\nWriting library                          : XviD 63\n\nAudio\nID                                       : 1\nFormat                                   : MPEG Audio\nFormat version                           : Version 1\nFormat profile                           : Layer 3\nCodec ID                                 : 55\nCodec ID/Hint                            : MP3\nDuration                                 : 2h 9mn\nBit rate mode                            : Constant\nBit rate                                 : 128 Kbps\nChannel(s)                               : 2 channels\nSampling rate                            : 44.1 KHz\nCompression mode                         : Lossy\nDelay relative to video                  : 40ms\nStream size                              : 118 MiB (15%)\nAlignment                                : Aligned on interleaves\nInterleave, duration                     : 26 ms (0.65 video frame)\nInterleave, preload duration             : 522 ms\nWriting library                          : LAME3.98.4\nAudio                                    : English\nSubtitle                                 : Estonia (.SRT)\n &lt;a href=&quot;\nhttp://bayimg.com/PAjIgaaEF&quot; rel=&quot;nofollow&quot; target=&quot;_NEW&quot;&gt;\nhttp://bayimg.com/PAjIgaaEF&lt;/a&gt;\n\nSEED AND COMMENT!!!!","torrent":{"xt":"urn:btih:827be66e1951edd31848c693b885c5cb55b8d1bc","amp;dn":"Love+Actually+2003+DVDRip+%28Eesti+Subtiitrid%29+FLY635","amp;tr":["udp%3A%2F%2Ftracker.openbittorrent.com%3A80","udp%3A%2F%2Fopen.demonii.com%3A1337","udp%3A%2F%2Ftracker.coppersurfer.tk%3A6969","udp%3A%2F%2Fexodus.desync.com%3A6969"],"infoHash":"827be66e1951edd31848c693b885c5cb55b8d1bc","infoHashBuffer":{"type":"Buffer","data":[130,123,230,110,25,81,237,211,24,72,198,147,184,133,197,203,85,184,209,188]},"announce":[],"urlList":[]}}